# xmcd CD database file
#
# Track frame offsets:
#	150
#	11432
#	22766
#	32951
#	45229
#	54490
#	67189
#	77402
#	88865
#	100520
#	112052
#	122434
#	134952
#	145906
#	154819
#	166827
#	178561
#	188319
#
# Disc length: 2631 seconds
#
# Revision: 1
# Processed by: cddbd v1.5.2PL0 Copyright (c) Steve Scherf et al.
# Submitted via: CDex 1.94
#
DISCID=e00a4512
DTITLE=Various Artist - Fire-Fury Records Story # 2
DYEAR=1900
DGENRE=R&B
TTITLE0=Little Junior Lewis - And That's All I Need
TTITLE1=Gil Hamilton - Pretty Baby Come Back To Mesay It Was A Dream
TTITLE2=Chuck Bradford - Say It Was A Dream
TTITLE3=Buddy Barnes - I Cried
TTITLE4=Linda Martell And The Anglos - The Things I Do For You
TTITLE5=The Gay Poppers - I Want To Know
TTITLE6=Riff Ruffin - Dig That Rock And Roll
TTITLE7=Willie Bradford - So Long
TTITLE8=Delmar - Depending On You
TTITLE9=Jimmy Ricks - Let Me Down Easy
TTITLE10=Mary Ann Fisher - Put Your Shoes On
TTITLE11=Buddy Skipper - Don't Be A Shame (To Call My Name)
TTITLE12=Little Junior Lewis - Your Heart Must Be Made Of Stone
TTITLE13=The Gay Poppers - You Got Me Up Tight
TTITLE14=Rockin' Bradley - I Have News For You
TTITLE15=Helen Bryant - I've Learned My Lesson
TTITLE16=Wilbert Harrison - Happy In Love
TTITLE17=Clarence (Junior) Lewis - Cupid's Little Helper
EXTD=
EXTT0=
EXTT1=
EXTT2=
EXTT3=
EXTT4=
EXTT5=
EXTT6=
EXTT7=
EXTT8=
EXTT9=
EXTT10=
EXTT11=
EXTT12=
EXTT13=
EXTT14=
EXTT15=
EXTT16=
EXTT17=
PLAYORDER=
